<mxfile host="65bd71144e">
    <diagram id="eglOLmeUuXNKSWCDkfcU" name="ページ1">
        <mxGraphModel dx="537" dy="395" grid="1" gridSize="10" guides="1" tooltips="1" connect="1" arrows="1" fold="1" page="1" pageScale="1" pageWidth="827" pageHeight="1169" math="0" shadow="0">
            <root>
                <mxCell id="0"/>
                <mxCell id="1" parent="0"/>
                <mxCell id="2" value="受け入れ&lt;br&gt;テスト" style="rounded=1;whiteSpace=wrap;html=1;fillColor=#60a917;fontColor=#ffffff;strokeColor=#2D7600;" parent="1" vertex="1">
                    <mxGeometry x="655" y="375" width="75" height="60" as="geometry"/>
                </mxCell>
                <mxCell id="3" value="システム&lt;br&gt;テスト" style="rounded=1;whiteSpace=wrap;html=1;fillColor=#60a917;fontColor=#ffffff;strokeColor=#2D7600;" parent="1" vertex="1">
                    <mxGeometry x="580" y="435" width="75" height="60" as="geometry"/>
                </mxCell>
                <mxCell id="4" value="単体&lt;br&gt;テスト" style="rounded=1;whiteSpace=wrap;html=1;fillColor=#60a917;fontColor=#ffffff;strokeColor=#2D7600;" parent="1" vertex="1">
                    <mxGeometry x="505" y="495" width="75" height="60" as="geometry"/>
                </mxCell>
                <mxCell id="5" value="テスト" style="rounded=1;whiteSpace=wrap;html=1;fillColor=#60a917;fontColor=#ffffff;strokeColor=#2D7600;" parent="1" vertex="1">
                    <mxGeometry x="430" y="555" width="75" height="60" as="geometry"/>
                </mxCell>
                <mxCell id="6" value="システム実装" style="rounded=1;whiteSpace=wrap;html=1;fillColor=#1ba1e2;fontColor=#ffffff;strokeColor=#006EAF;" parent="1" vertex="1">
                    <mxGeometry x="355" y="555" width="75" height="60" as="geometry"/>
                </mxCell>
                <mxCell id="7" value="詳細設計" style="rounded=1;whiteSpace=wrap;html=1;fillColor=#1ba1e2;fontColor=#ffffff;strokeColor=#006EAF;" parent="1" vertex="1">
                    <mxGeometry x="280" y="495" width="75" height="60" as="geometry"/>
                </mxCell>
                <mxCell id="8" value="システム設計" style="rounded=1;whiteSpace=wrap;html=1;fillColor=#1ba1e2;fontColor=#ffffff;strokeColor=#006EAF;" parent="1" vertex="1">
                    <mxGeometry x="205" y="435" width="75" height="60" as="geometry"/>
                </mxCell>
                <mxCell id="9" value="要件定義" style="rounded=1;whiteSpace=wrap;html=1;fillColor=#1ba1e2;fontColor=#ffffff;strokeColor=#006EAF;" parent="1" vertex="1">
                    <mxGeometry x="130" y="375" width="75" height="60" as="geometry"/>
                </mxCell>
                <mxCell id="13" value="" style="shape=flexArrow;endArrow=classic;startArrow=classic;html=1;fillColor=#008a00;strokeColor=#005700;" parent="1" edge="1">
                    <mxGeometry width="100" height="100" relative="1" as="geometry">
                        <mxPoint x="375" y="524.63" as="sourcePoint"/>
                        <mxPoint x="485" y="524.63" as="targetPoint"/>
                    </mxGeometry>
                </mxCell>
                <mxCell id="14" value="" style="shape=flexArrow;endArrow=classic;startArrow=classic;html=1;fillColor=#008a00;strokeColor=#005700;" parent="1" edge="1">
                    <mxGeometry width="100" height="100" relative="1" as="geometry">
                        <mxPoint x="295" y="464.63" as="sourcePoint"/>
                        <mxPoint x="565" y="464.63" as="targetPoint"/>
                    </mxGeometry>
                </mxCell>
                <mxCell id="15" value="" style="shape=flexArrow;endArrow=classic;startArrow=classic;html=1;fillColor=#008a00;strokeColor=#005700;" parent="1" edge="1">
                    <mxGeometry width="100" height="100" relative="1" as="geometry">
                        <mxPoint x="220" y="404" as="sourcePoint"/>
                        <mxPoint x="640" y="404" as="targetPoint"/>
                    </mxGeometry>
                </mxCell>
                <mxCell id="19" value="検証" style="ellipse;whiteSpace=wrap;html=1;fillColor=#008a00;fontColor=#ffffff;strokeColor=#005700;" parent="1" vertex="1">
                    <mxGeometry x="400" y="390" width="60" height="150" as="geometry"/>
                </mxCell>
                <mxCell id="22" value="" style="shape=flexArrow;endArrow=classic;html=1;fillColor=#d80073;strokeColor=#A50040;exitX=0;exitY=1;exitDx=0;exitDy=0;entryX=1;entryY=1;entryDx=0;entryDy=0;" parent="1" source="9" target="2" edge="1">
                    <mxGeometry width="50" height="50" relative="1" as="geometry">
                        <mxPoint x="100" y="430" as="sourcePoint"/>
                        <mxPoint x="730" y="460" as="targetPoint"/>
                        <Array as="points">
                            <mxPoint x="430" y="670"/>
                        </Array>
                    </mxGeometry>
                </mxCell>
            </root>
        </mxGraphModel>
    </diagram>
</mxfile>